<?xml version="1.0" encoding="UTF-8"?>
<svg xmlns="http://www.w3.org/2000/svg" viewBox="0 0 900 500">
  <defs>
    <style>
      .uuid-72a87cda-12c8-4777-a967-d46aac7d8d6a {
        stroke: #ffc800;
      }

      .uuid-72a87cda-12c8-4777-a967-d46aac7d8d6a, .uuid-57787145-62ee-48aa-bccc-ea3c977fe1a4, .uuid-e60aeadb-570d-4b5a-ba75-e82c71aa39bd, .uuid-743116e6-8c70-419c-9f5c-62e4d3a005b8, .uuid-783dc524-80ce-4ed2-af75-250fed4eab13 {
        stroke-miterlimit: 10;
      }

      .uuid-72a87cda-12c8-4777-a967-d46aac7d8d6a, .uuid-57787145-62ee-48aa-bccc-ea3c977fe1a4, .uuid-783dc524-80ce-4ed2-af75-250fed4eab13 {
        fill: none;
        stroke-linecap: round;
        stroke-width: 5px;
      }

      .uuid-57787145-62ee-48aa-bccc-ea3c977fe1a4 {
        stroke: aqua;
      }

      .uuid-e60aeadb-570d-4b5a-ba75-e82c71aa39bd {
        fill: #bbbdbf;
        stroke: #231f20;
        stroke-width: .5px;
      }

      .uuid-743116e6-8c70-419c-9f5c-62e4d3a005b8 {
        fill: #747475;
        stroke: #000;
      }

      .uuid-6c006dab-aba0-4eed-8246-d2239312e66b {
        fill: #1b1b1d;
      }

      .uuid-783dc524-80ce-4ed2-af75-250fed4eab13 {
        stroke: #fff;
      }
    </style>
  </defs>
  <g id="uuid-3ada3491-cc1b-4075-a6a2-5c755e04062f" data-name="Layer 2">
    <rect class="uuid-6c006dab-aba0-4eed-8246-d2239312e66b" width="900" height="500"/>
  </g>
  <g id="uuid-89e3fd64-f2e5-4b2a-9a2a-c51248f2e41c" data-name="Layer 1">
    <g>
      <path class="uuid-783dc524-80ce-4ed2-af75-250fed4eab13" d="M655.1,289.02c-7.99-5.02-2.93-18.47,9.2-18.47h127.58"/>
      <path class="uuid-783dc524-80ce-4ed2-af75-250fed4eab13" d="M108.12,270.55h280.68c9.63,0,21.96,9.56,27.04,19.63"/>
      <g>
        <circle class="uuid-743116e6-8c70-419c-9f5c-62e4d3a005b8" cx="724.83" cy="269.93" r="49.5"/>
        <line class="uuid-783dc524-80ce-4ed2-af75-250fed4eab13" x1="676.68" y1="269.58" x2="760.71" y2="237.32"/>
        <line class="uuid-783dc524-80ce-4ed2-af75-250fed4eab13" x1="689" y1="302.16" x2="773.03" y2="269.9"/>
      </g>
      <g>
        <circle class="uuid-743116e6-8c70-419c-9f5c-62e4d3a005b8" cx="327.72" cy="269.93" r="49.5"/>
        <line class="uuid-783dc524-80ce-4ed2-af75-250fed4eab13" x1="279.57" y1="269.58" x2="363.61" y2="237.32"/>
        <line class="uuid-783dc524-80ce-4ed2-af75-250fed4eab13" x1="291.9" y1="302.16" x2="375.93" y2="269.9"/>
      </g>
      <g>
        <circle class="uuid-743116e6-8c70-419c-9f5c-62e4d3a005b8" cx="182.85" cy="269.93" r="49.5"/>
        <line class="uuid-783dc524-80ce-4ed2-af75-250fed4eab13" x1="134.7" y1="269.58" x2="218.73" y2="237.32"/>
        <line class="uuid-783dc524-80ce-4ed2-af75-250fed4eab13" x1="147.02" y1="302.16" x2="231.05" y2="269.9"/>
      </g>
      <path class="uuid-72a87cda-12c8-4777-a967-d46aac7d8d6a" d="M415.84,316.85c8.44-10.84,7.95-14.69,0-26.67"/>
      <path class="uuid-57787145-62ee-48aa-bccc-ea3c977fe1a4" d="M665.45,317.32c6.84-5.35.06-24.93-10.34-28.3"/>
      <g>
        <path class="uuid-e60aeadb-570d-4b5a-ba75-e82c71aa39bd" d="M608.76,108.53c6.28,0,11.84,4.05,15.28,10.28,3.12-3,6.95-4.76,11.1-4.76,10.44,0,18.91,11.21,18.91,25.03s-8.47,25.03-18.91,25.03c-6.28,0-11.84-4.05-15.28-10.28-3.12,3-6.95,4.76-11.1,4.76-10.44,0-18.91-11.21-18.91-25.03s8.47-25.03,18.91-25.03Z"/>
        <path class="uuid-72a87cda-12c8-4777-a967-d46aac7d8d6a" d="M600.59,122.3c-10.68-20.66-15.66-20.65-16.11-21.07"/>
        <path class="uuid-57787145-62ee-48aa-bccc-ea3c977fe1a4" d="M670.19,166.72c-21.18-5.34-29.98-14.34-34.08-21.69"/>
      </g>
      <g>
        <path class="uuid-783dc524-80ce-4ed2-af75-250fed4eab13" d="M570.62,324.69c14.92-3.18,29.79.26,29.85,24.05"/>
        <path class="uuid-783dc524-80ce-4ed2-af75-250fed4eab13" d="M475.61,323.25c-26.57,14.53-15.68,44.3-8.65,50.96"/>
        <g>
          <circle class="uuid-743116e6-8c70-419c-9f5c-62e4d3a005b8" cx="522.41" cy="324.71" r="49.5"/>
          <line class="uuid-783dc524-80ce-4ed2-af75-250fed4eab13" x1="474.26" y1="324.37" x2="558.29" y2="292.11"/>
          <line class="uuid-783dc524-80ce-4ed2-af75-250fed4eab13" x1="486.58" y1="356.95" x2="570.62" y2="324.69"/>
        </g>
        <path class="uuid-57787145-62ee-48aa-bccc-ea3c977fe1a4" d="M634.54,364.19c-17.16,10.02-36.43,1.81-34.08-14.69"/>
        <path class="uuid-72a87cda-12c8-4777-a967-d46aac7d8d6a" d="M475.61,398.77c0-10.53,0-16.31-8.06-23.55"/>
      </g>
      <g>
        <path class="uuid-e60aeadb-570d-4b5a-ba75-e82c71aa39bd" d="M573.24,180.24c6.28,0,11.84,4.05,15.28,10.28,3.12-3,6.95-4.76,11.1-4.76,10.44,0,18.91,11.21,18.91,25.03s-8.47,25.03-18.91,25.03c-6.28,0-11.84-4.05-15.28-10.28-3.12,3-6.95,4.76-11.1,4.76-10.44,0-18.91-11.21-18.91-25.03s8.47-25.03,18.91-25.03Z"/>
        <path class="uuid-72a87cda-12c8-4777-a967-d46aac7d8d6a" d="M565.07,194.01c-10.68-20.66-15.66-20.65-16.11-21.07"/>
        <path class="uuid-57787145-62ee-48aa-bccc-ea3c977fe1a4" d="M634.67,238.43c-21.18-5.34-29.98-14.34-34.08-21.69"/>
      </g>
      <g>
        <path class="uuid-e60aeadb-570d-4b5a-ba75-e82c71aa39bd" d="M424.39,136.13c6.28,0,11.84,4.05,15.28,10.28,3.12-3,6.95-4.76,11.1-4.76,10.44,0,18.91,11.21,18.91,25.03s-8.47,25.03-18.91,25.03c-6.28,0-11.84-4.05-15.28-10.28-3.12,3-6.95,4.76-11.1,4.76-10.44,0-18.91-11.21-18.91-25.03s8.47-25.03,18.91-25.03Z"/>
        <path class="uuid-72a87cda-12c8-4777-a967-d46aac7d8d6a" d="M416.21,149.9c-10.68-20.66-15.66-20.65-16.11-21.07"/>
        <path class="uuid-57787145-62ee-48aa-bccc-ea3c977fe1a4" d="M485.81,194.32c-21.18-5.34-29.98-14.34-34.08-21.69"/>
      </g>
    </g>
  </g>
</svg>