<?xml version="1.0" encoding="UTF-8"?>
<svg id="uuid-8c5211dc-54fd-4014-baa6-480aa1ba2ba2" data-name="Layer 1" xmlns="http://www.w3.org/2000/svg" viewBox="0 0 900 500">
  <defs>
    <style>
      .uuid-4d990940-241b-4d4d-850a-d696a5ea41e3 {
        font-family: Arial-BoldMT, Arial;
        font-size: 72px;
        font-weight: 700;
      }

      .uuid-f54fb78f-9a5a-4755-a404-57b8609ea46b {
        fill: #ffe42a;
        stroke: #231f20;
      }

      .uuid-f54fb78f-9a5a-4755-a404-57b8609ea46b, .uuid-968faa30-dfe5-4884-a6e1-bd9edbc3b74f, .uuid-0d4d92c2-977a-492b-aa7e-aefeb495fdd3 {
        stroke-miterlimit: 10;
      }

      .uuid-913f7596-b042-4c4a-bd63-8b20394b0fb9 {
        fill: lime;
      }

      .uuid-913f7596-b042-4c4a-bd63-8b20394b0fb9, .uuid-dfd6f96c-6523-4260-b763-f46b955e58a1 {
        opacity: .75;
      }

      .uuid-968faa30-dfe5-4884-a6e1-bd9edbc3b74f {
        stroke: #000;
        stroke-width: 14px;
      }

      .uuid-968faa30-dfe5-4884-a6e1-bd9edbc3b74f, .uuid-0d4d92c2-977a-492b-aa7e-aefeb495fdd3 {
        fill: none;
        stroke-linecap: round;
      }

      .uuid-0d4d92c2-977a-492b-aa7e-aefeb495fdd3 {
        stroke: #8100aa;
        stroke-width: 6px;
      }
    </style>
  </defs>
  <g>
    <line class="uuid-968faa30-dfe5-4884-a6e1-bd9edbc3b74f" x1="108.12" y1="328.02" x2="791.88" y2="328.02"/>
    <polygon class="uuid-f54fb78f-9a5a-4755-a404-57b8609ea46b" points="717.36 179.93 749.5 179.93 730.21 231.36 743.07 231.36 710.93 308.5 717.36 237.79 704.5 237.79 717.36 179.93"/>
    <polygon class="uuid-f54fb78f-9a5a-4755-a404-57b8609ea46b" points="159.36 179.93 191.5 179.93 172.21 231.36 185.07 231.36 152.93 308.5 159.36 237.79 146.5 237.79 159.36 179.93"/>
    <g>
      <ellipse class="uuid-913f7596-b042-4c4a-bd63-8b20394b0fb9" cx="450" cy="310.94" rx="149.57" ry="74.44"/>
      <text class="uuid-4d990940-241b-4d4d-850a-d696a5ea41e3" transform="translate(406.02 325.53)"><tspan x="0" y="0">TF</tspan></text>
    </g>
  </g>
  <g class="uuid-dfd6f96c-6523-4260-b763-f46b955e58a1">
    <polyline class="uuid-0d4d92c2-977a-492b-aa7e-aefeb495fdd3" points="624.79 120.98 582.57 206.83 601.2 276.38"/>
    <path class="uuid-0d4d92c2-977a-492b-aa7e-aefeb495fdd3" d="M613.77,114.61l-42.22,85.85c-23.18,6.21-46.36,12.42-69.55,18.63"/>
    <path class="uuid-0d4d92c2-977a-492b-aa7e-aefeb495fdd3" d="M565.18,211.49c-23.18,6.21-37.67,10.09-60.85,16.31"/>
    <path class="uuid-0d4d92c2-977a-492b-aa7e-aefeb495fdd3" d="M592.51,278.71c-6.21-23.18-10.09-37.67-16.31-60.85"/>
  </g>
</svg>