<?xml version="1.0" encoding="UTF-8"?>
<svg xmlns="http://www.w3.org/2000/svg" viewBox="0 0 900 500">
  <defs>
    <style>
      .uuid-7d3521e3-a65b-4624-91b1-620a054ebda0 {
        font-family: Arial-BoldMT, Arial;
        font-size: 72px;
        font-weight: 700;
      }

      .uuid-b2564309-5356-4496-a64e-cbf53fc05936 {
        fill: #ffe42a;
        stroke: #231f20;
      }

      .uuid-b2564309-5356-4496-a64e-cbf53fc05936, .uuid-c27a603f-eae1-4b55-b505-52e001b1bb94, .uuid-cb1263d4-2add-4dca-b739-a5398ed4c7de {
        stroke-miterlimit: 10;
      }

      .uuid-6cfe2d77-dd48-4997-a078-20f07970b6b8 {
        fill: lime;
      }

      .uuid-6cfe2d77-dd48-4997-a078-20f07970b6b8, .uuid-1ae500f3-e997-4d77-856b-e0ce62bdd72c {
        opacity: .75;
      }

      .uuid-c9ccc1a3-53bc-47cb-846c-4867e1c8db2d {
        fill: #1b1b1d;
      }

      .uuid-c27a603f-eae1-4b55-b505-52e001b1bb94 {
        stroke: #fff;
        stroke-width: 14px;
      }

      .uuid-c27a603f-eae1-4b55-b505-52e001b1bb94, .uuid-cb1263d4-2add-4dca-b739-a5398ed4c7de {
        fill: none;
        stroke-linecap: round;
      }

      .uuid-cb1263d4-2add-4dca-b739-a5398ed4c7de {
        stroke: #8100aa;
        stroke-width: 6px;
      }
    </style>
  </defs>
  <g id="uuid-0dd72ddc-8993-491b-b5a0-d7575405c894" data-name="Layer 2">
    <rect class="uuid-c9ccc1a3-53bc-47cb-846c-4867e1c8db2d" width="900" height="500"/>
  </g>
  <g id="uuid-b9c606b6-2d2b-4c4b-91ff-d50f53928947" data-name="Layer 1">
    <g>
      <g>
        <line class="uuid-c27a603f-eae1-4b55-b505-52e001b1bb94" x1="108.12" y1="328.02" x2="791.88" y2="329.87"/>
        <polygon class="uuid-b2564309-5356-4496-a64e-cbf53fc05936" points="717.36 179.93 749.5 179.93 730.21 231.36 743.07 231.36 710.93 308.5 717.36 237.79 704.5 237.79 717.36 179.93"/>
        <polygon class="uuid-b2564309-5356-4496-a64e-cbf53fc05936" points="159.36 179.93 191.5 179.93 172.21 231.36 185.07 231.36 152.93 308.5 159.36 237.79 146.5 237.79 159.36 179.93"/>
        <g>
          <ellipse class="uuid-6cfe2d77-dd48-4997-a078-20f07970b6b8" cx="450" cy="310.94" rx="149.57" ry="74.44"/>
          <text class="uuid-7d3521e3-a65b-4624-91b1-620a054ebda0" transform="translate(406.02 325.53)"><tspan x="0" y="0">TF</tspan></text>
        </g>
      </g>
      <g class="uuid-1ae500f3-e997-4d77-856b-e0ce62bdd72c">
        <polyline class="uuid-cb1263d4-2add-4dca-b739-a5398ed4c7de" points="624.79 120.98 582.57 206.83 601.2 276.38"/>
        <path class="uuid-cb1263d4-2add-4dca-b739-a5398ed4c7de" d="M613.77,114.61l-42.22,85.85c-23.18,6.21-46.36,12.42-69.55,18.63"/>
        <path class="uuid-cb1263d4-2add-4dca-b739-a5398ed4c7de" d="M565.18,211.49c-23.18,6.21-37.67,10.09-60.85,16.31"/>
        <path class="uuid-cb1263d4-2add-4dca-b739-a5398ed4c7de" d="M592.51,278.71c-6.21-23.18-10.09-37.67-16.31-60.85"/>
      </g>
    </g>
  </g>
</svg>