<?xml version="1.0" encoding="UTF-8"?>
<svg xmlns="http://www.w3.org/2000/svg" viewBox="0 0 900 500">
  <defs>
    <style>
      .uuid-f6ef581b-874f-40ae-9768-70ad0577eb31 {
        fill: #fff;
        stroke: #fff;
        stroke-width: 14px;
      }

      .uuid-f6ef581b-874f-40ae-9768-70ad0577eb31, .uuid-0bd6a07d-59a8-4a0a-9229-ef43d5a7fd11 {
        stroke-linecap: round;
      }

      .uuid-f6ef581b-874f-40ae-9768-70ad0577eb31, .uuid-0bd6a07d-59a8-4a0a-9229-ef43d5a7fd11, .uuid-6e8d182e-637a-4009-80c1-d994ea41a446, .uuid-24f657b7-e375-41a5-a587-74ead0f4ccee, .uuid-6e99dbb9-bb2a-48b4-8a42-2be4a9091e08, .uuid-a90b6d0e-fcb8-41c9-a5a6-a70a680a43b2 {
        stroke-miterlimit: 10;
      }

      .uuid-0bd6a07d-59a8-4a0a-9229-ef43d5a7fd11 {
        stroke: #6d6e71;
      }

      .uuid-0bd6a07d-59a8-4a0a-9229-ef43d5a7fd11, .uuid-24f657b7-e375-41a5-a587-74ead0f4ccee, .uuid-6e99dbb9-bb2a-48b4-8a42-2be4a9091e08, .uuid-a90b6d0e-fcb8-41c9-a5a6-a70a680a43b2 {
        fill: none;
      }

      .uuid-0bd6a07d-59a8-4a0a-9229-ef43d5a7fd11, .uuid-6e99dbb9-bb2a-48b4-8a42-2be4a9091e08 {
        stroke-width: 9px;
      }

      .uuid-3efae06e-13f8-4a80-b77a-2b9f1fb574b7 {
        opacity: .75;
      }

      .uuid-3efae06e-13f8-4a80-b77a-2b9f1fb574b7, .uuid-6e8d182e-637a-4009-80c1-d994ea41a446 {
        fill: #8100aa;
      }

      .uuid-6e8d182e-637a-4009-80c1-d994ea41a446 {
        stroke: #000;
        stroke-width: .1px;
      }

      .uuid-6e8d182e-637a-4009-80c1-d994ea41a446, .uuid-f5231837-1a13-4c06-8703-71d5422a9f6c {
        font-family: ArialMT, Arial;
        font-size: 54.7px;
      }

      .uuid-9256eb87-a3ee-42d4-a487-f0797f4f7871 {
        letter-spacing: 0em;
      }

      .uuid-2e141525-9beb-43e9-b62e-c1dfd56b47cc {
        fill: #ffc800;
      }

      .uuid-65fa1cc7-ffac-4ce6-b6d6-d1330e6ed4b9 {
        fill: #1b1b1d;
      }

      .uuid-3abef471-9f1f-4389-85e7-4c84331dfe69 {
        opacity: .3;
      }

      .uuid-64d2fe93-98ba-473e-ac67-5959b29a5479 {
        fill: aqua;
      }

      .uuid-b4bc7bfb-6c84-447d-8f17-905f2c80b971 {
        letter-spacing: -.06em;
      }

      .uuid-24f657b7-e375-41a5-a587-74ead0f4ccee, .uuid-6e99dbb9-bb2a-48b4-8a42-2be4a9091e08 {
        stroke: aqua;
      }

      .uuid-24f657b7-e375-41a5-a587-74ead0f4ccee, .uuid-a90b6d0e-fcb8-41c9-a5a6-a70a680a43b2 {
        stroke-width: 5px;
      }

      .uuid-a90b6d0e-fcb8-41c9-a5a6-a70a680a43b2 {
        stroke: #ffc800;
      }
    </style>
  </defs>
  <g id="uuid-f339eeed-0551-4254-8d51-84b871b102fe" data-name="Layer 2">
    <rect class="uuid-65fa1cc7-ffac-4ce6-b6d6-d1330e6ed4b9" width="900" height="500"/>
  </g>
  <g id="uuid-1de31857-f3d8-49c2-99ac-c7c7f1cb5166" data-name="Layer 1">
    <g>
      <g class="uuid-3abef471-9f1f-4389-85e7-4c84331dfe69">
        <g>
          <path class="uuid-6e99dbb9-bb2a-48b4-8a42-2be4a9091e08" d="M188.86,348.23v87.07c-18.65.21-37.3.41-55.95.62"/>
          <polygon class="uuid-64d2fe93-98ba-473e-ac67-5959b29a5479" points="145.36 419.12 138.47 435.86 145.73 452.44 106.04 436.22 145.36 419.12"/>
        </g>
      </g>
      <g>
        <g>
          <path class="uuid-6e99dbb9-bb2a-48b4-8a42-2be4a9091e08" d="M328.75,349.3v-129.02c40.77-.37,81.54-.74,122.31-1.11"/>
          <polygon class="uuid-64d2fe93-98ba-473e-ac67-5959b29a5479" points="438.57 235.95 445.5 219.22 438.27 202.62 477.92 218.92 438.57 235.95"/>
        </g>
        <line class="uuid-f6ef581b-874f-40ae-9768-70ad0577eb31" x1="110.19" y1="346.03" x2="793.96" y2="346.03"/>
        <ellipse class="uuid-3efae06e-13f8-4a80-b77a-2b9f1fb574b7" cx="630.22" cy="309.73" rx="102.38" ry="62.67"/>
        <path class="uuid-0bd6a07d-59a8-4a0a-9229-ef43d5a7fd11" d="M644.26,333.56c-76.84-19.36-108.76-52.03-123.63-78.67-14.8-26.52-13.13-47.83-33.72-87.67-18.59-35.98-41.89-61.03-58.44-76.43"/>
        <circle class="uuid-2e141525-9beb-43e9-b62e-c1dfd56b47cc" cx="645.89" cy="333.22" r="10"/>
        <circle class="uuid-64d2fe93-98ba-473e-ac67-5959b29a5479" cx="428.11" cy="89.88" r="10"/>
        <text class="uuid-6e8d182e-637a-4009-80c1-d994ea41a446" transform="translate(270.53 460.22)"><tspan x="0" y="0">RN</tspan><tspan class="uuid-b4bc7bfb-6c84-447d-8f17-905f2c80b971" x="79.01" y="0">A</tspan><tspan class="uuid-9256eb87-a3ee-42d4-a487-f0797f4f7871" x="112.47" y="0" xml:space="preserve"> Polymerase II</tspan></text>
        <line class="uuid-a90b6d0e-fcb8-41c9-a5a6-a70a680a43b2" x1="658.08" y1="205.72" x2="645.96" y2="333.85"/>
        <g>
          <rect class="uuid-2e141525-9beb-43e9-b62e-c1dfd56b47cc" x="610.07" y="22.01" width="183.88" height="189.25"/>
          <g>
            <path d="M627.45,99.87l15.04-39.16h5.58l16.03,39.16h-5.9l-4.57-11.86h-16.37l-4.3,11.86h-5.5ZM638.75,83.79h13.28l-4.09-10.84c-1.25-3.29-2.17-6-2.78-8.12-.5,2.51-1.2,5-2.11,7.48l-4.3,11.49Z"/>
            <path d="M686.13,89.48l4.73.61c-.52,3.26-1.84,5.81-3.97,7.65-2.13,1.84-4.74,2.76-7.84,2.76-3.88,0-7-1.27-9.36-3.81-2.36-2.54-3.54-6.17-3.54-10.91,0-3.06.51-5.74,1.52-8.04,1.01-2.3,2.56-4.02,4.63-5.17s4.33-1.72,6.77-1.72c3.08,0,5.6.78,7.56,2.34,1.96,1.56,3.21,3.77,3.77,6.64l-4.67.72c-.45-1.91-1.23-3.34-2.36-4.3-1.13-.96-2.5-1.44-4.1-1.44-2.42,0-4.39.87-5.9,2.6-1.51,1.74-2.27,4.48-2.27,8.24s.73,6.58,2.19,8.31c1.46,1.73,3.37,2.59,5.72,2.59,1.89,0,3.46-.58,4.73-1.74,1.26-1.16,2.07-2.94,2.4-5.34Z"/>
            <path d="M705.47,95.57l.69,4.25c-1.35.29-2.56.43-3.63.43-1.75,0-3.1-.28-4.06-.83-.96-.55-1.64-1.28-2.03-2.18-.39-.9-.59-2.79-.59-5.68v-16.32h-3.53v-3.74h3.53v-7.02l4.78-2.88v9.91h4.83v3.74h-4.83v16.59c0,1.37.08,2.25.25,2.64.17.39.44.7.83.93s.93.35,1.64.35c.53,0,1.24-.06,2.11-.19Z"/>
            <path d="M710.2,66.25v-5.53h4.81v5.53h-4.81ZM710.2,99.87v-28.37h4.81v28.37h-4.81Z"/>
            <path d="M730.21,99.87l-10.79-28.37h5.08l6.09,16.99c.66,1.83,1.26,3.74,1.82,5.72.43-1.5,1.02-3.29,1.79-5.39l6.3-17.31h4.94l-10.74,28.37h-4.49Z"/>
            <path d="M769.09,90.74l4.97.61c-.78,2.9-2.23,5.16-4.35,6.76s-4.83,2.4-8.12,2.4c-4.15,0-7.44-1.28-9.87-3.83-2.43-2.55-3.65-6.14-3.65-10.75s1.23-8.48,3.69-11.11c2.46-2.63,5.64-3.95,9.56-3.95s6.89,1.29,9.29,3.87c2.4,2.58,3.61,6.21,3.61,10.9,0,.29,0,.71-.03,1.28h-21.15c.18,3.12,1.06,5.5,2.64,7.16,1.58,1.66,3.56,2.48,5.93,2.48,1.76,0,3.27-.46,4.51-1.39s2.23-2.4,2.96-4.43ZM753.31,82.97h15.84c-.21-2.39-.82-4.18-1.82-5.37-1.53-1.85-3.52-2.78-5.96-2.78-2.21,0-4.06.74-5.57,2.22-1.5,1.48-2.34,3.46-2.5,5.93Z"/>
            <path d="M657.34,152.93l4.89-.43c.23,1.96.77,3.57,1.62,4.82.85,1.25,2.16,2.27,3.94,3.04s3.78,1.16,6.01,1.16c1.98,0,3.72-.29,5.24-.88s2.64-1.39,3.38-2.42c.74-1.02,1.11-2.14,1.11-3.35s-.36-2.3-1.07-3.22c-.71-.92-1.89-1.69-3.53-2.31-1.05-.41-3.38-1.05-6.97-1.91-3.6-.86-6.12-1.68-7.56-2.44-1.87-.98-3.26-2.19-4.18-3.65s-1.38-3.08-1.38-4.87c0-1.98.56-3.82,1.68-5.54,1.12-1.72,2.76-3.02,4.92-3.91,2.15-.89,4.55-1.33,7.18-1.33,2.9,0,5.46.47,7.68,1.4s3.92,2.31,5.12,4.13c1.19,1.82,1.83,3.87,1.92,6.17l-4.97.37c-.27-2.47-1.17-4.34-2.71-5.61-1.54-1.26-3.82-1.9-6.82-1.9s-5.42.57-6.85,1.72-2.15,2.53-2.15,4.15c0,1.41.51,2.56,1.52,3.47,1,.91,3.6,1.84,7.81,2.79,4.21.95,7.1,1.79,8.67,2.5,2.28,1.05,3.96,2.38,5.05,3.99s1.63,3.47,1.63,5.57-.6,4.05-1.79,5.89c-1.19,1.84-2.91,3.28-5.14,4.3-2.24,1.02-4.75,1.54-7.55,1.54-3.54,0-6.51-.52-8.91-1.55-2.4-1.03-4.27-2.59-5.64-4.66-1.36-2.07-2.08-4.42-2.15-7.04Z"/>
            <path d="M695,131.89v-5.53h4.81v5.53h-4.81ZM695,165.51v-28.37h4.81v28.37h-4.81Z"/>
            <path d="M717.62,161.21l.69,4.25c-1.35.29-2.56.43-3.63.43-1.75,0-3.1-.28-4.06-.83-.96-.55-1.64-1.28-2.03-2.18-.39-.9-.59-2.79-.59-5.68v-16.32h-3.53v-3.74h3.53v-7.02l4.78-2.88v9.91h4.83v3.74h-4.83v16.59c0,1.37.08,2.25.25,2.64.17.39.44.7.83.93s.93.35,1.64.35c.53,0,1.24-.06,2.11-.19Z"/>
            <path d="M741.74,156.38l4.97.61c-.78,2.9-2.23,5.16-4.35,6.76s-4.83,2.4-8.12,2.4c-4.15,0-7.44-1.28-9.87-3.83-2.43-2.55-3.65-6.14-3.65-10.75s1.23-8.48,3.69-11.11c2.46-2.63,5.64-3.95,9.56-3.95s6.89,1.29,9.29,3.87c2.4,2.58,3.61,6.21,3.61,10.9,0,.29,0,.71-.03,1.28h-21.15c.18,3.12,1.06,5.5,2.64,7.16,1.58,1.66,3.56,2.48,5.93,2.48,1.76,0,3.27-.46,4.51-1.39s2.23-2.4,2.96-4.43ZM725.96,148.61h15.84c-.21-2.39-.82-4.18-1.82-5.37-1.53-1.85-3.52-2.78-5.96-2.78-2.21,0-4.06.74-5.57,2.22-1.5,1.48-2.34,3.46-2.5,5.93Z"/>
          </g>
        </g>
        <g>
          <rect class="uuid-64d2fe93-98ba-473e-ac67-5959b29a5479" x="110.19" y="90.25" width="183.88" height="113.85"/>
          <text class="uuid-f5231837-1a13-4c06-8703-71d5422a9f6c" transform="translate(148.97 163.23)"><tspan x="0" y="0">TSS</tspan></text>
        </g>
        <line class="uuid-24f657b7-e375-41a5-a587-74ead0f4ccee" x1="428.01" y1="90.04" x2="284.14" y2="122.95"/>
      </g>
    </g>
  </g>
</svg>