<?xml version="1.0" encoding="UTF-8"?>
<svg id="uuid-11fdca47-e2a9-444b-8850-3da4ddd3aee2" data-name="Layer 1" xmlns="http://www.w3.org/2000/svg" viewBox="0 0 900 500">
  <defs>
    <style>
      .uuid-168a4b0e-8a57-4641-85e9-31609c3560ed {
        stroke: #6d6e71;
      }

      .uuid-168a4b0e-8a57-4641-85e9-31609c3560ed, .uuid-342fea4b-a403-455b-a157-8d28b93da726, .uuid-6db21299-c6f5-4d16-870e-c410b9d26034, .uuid-c2fb2f22-982e-478d-bf4c-5da2dba139d2, .uuid-1c4e120a-8274-4c85-b5eb-b670d1fc3c7e, .uuid-1edd9a0d-db7d-4f4e-b897-8b9c63fa665e {
        stroke-miterlimit: 10;
      }

      .uuid-168a4b0e-8a57-4641-85e9-31609c3560ed, .uuid-6db21299-c6f5-4d16-870e-c410b9d26034 {
        stroke-linecap: round;
      }

      .uuid-168a4b0e-8a57-4641-85e9-31609c3560ed, .uuid-6db21299-c6f5-4d16-870e-c410b9d26034, .uuid-c2fb2f22-982e-478d-bf4c-5da2dba139d2, .uuid-1c4e120a-8274-4c85-b5eb-b670d1fc3c7e, .uuid-1edd9a0d-db7d-4f4e-b897-8b9c63fa665e {
        fill: none;
      }

      .uuid-168a4b0e-8a57-4641-85e9-31609c3560ed, .uuid-1c4e120a-8274-4c85-b5eb-b670d1fc3c7e {
        stroke-width: 9px;
      }

      .uuid-5521cc9a-7aea-43ef-ae2e-cebe2be64c09 {
        opacity: .75;
      }

      .uuid-5521cc9a-7aea-43ef-ae2e-cebe2be64c09, .uuid-342fea4b-a403-455b-a157-8d28b93da726 {
        fill: #8100aa;
      }

      .uuid-342fea4b-a403-455b-a157-8d28b93da726 {
        stroke-width: .1px;
      }

      .uuid-342fea4b-a403-455b-a157-8d28b93da726, .uuid-6308a2cf-17d8-40f8-99c5-86e80b203aca {
        font-family: ArialMT, Arial;
        font-size: 54.7px;
      }

      .uuid-342fea4b-a403-455b-a157-8d28b93da726, .uuid-6db21299-c6f5-4d16-870e-c410b9d26034 {
        stroke: #000;
      }

      .uuid-4f7ba9d7-3785-41af-9140-c013780700f8 {
        letter-spacing: 0em;
      }

      .uuid-c6ea0846-6353-483c-80f5-183948db1ef1 {
        fill: #ffc800;
      }

      .uuid-8923d14b-6cdd-4a19-b5bc-53fa58db1197 {
        opacity: .3;
      }

      .uuid-5db2af8f-c3f2-4df5-bb89-e46e1aa52e4e {
        fill: aqua;
      }

      .uuid-7e9af690-cd55-4c42-9c49-e8a01da0bad5 {
        letter-spacing: -.06em;
      }

      .uuid-6db21299-c6f5-4d16-870e-c410b9d26034 {
        stroke-width: 14px;
      }

      .uuid-c2fb2f22-982e-478d-bf4c-5da2dba139d2, .uuid-1c4e120a-8274-4c85-b5eb-b670d1fc3c7e {
        stroke: aqua;
      }

      .uuid-c2fb2f22-982e-478d-bf4c-5da2dba139d2, .uuid-1edd9a0d-db7d-4f4e-b897-8b9c63fa665e {
        stroke-width: 5px;
      }

      .uuid-1edd9a0d-db7d-4f4e-b897-8b9c63fa665e {
        stroke: #ffc800;
      }
    </style>
  </defs>
  <g class="uuid-8923d14b-6cdd-4a19-b5bc-53fa58db1197">
    <g>
      <path class="uuid-1c4e120a-8274-4c85-b5eb-b670d1fc3c7e" d="M186.79,348.23v87.07l-55.95.62"/>
      <polygon class="uuid-5db2af8f-c3f2-4df5-bb89-e46e1aa52e4e" points="143.29 419.12 136.39 435.86 143.66 452.44 103.97 436.22 143.29 419.12"/>
    </g>
  </g>
  <g>
    <g>
      <path class="uuid-1c4e120a-8274-4c85-b5eb-b670d1fc3c7e" d="M326.68,349.3v-129.02c40.77-.37,81.54-.74,122.31-1.11"/>
      <polygon class="uuid-5db2af8f-c3f2-4df5-bb89-e46e1aa52e4e" points="436.5 235.95 443.43 219.22 436.2 202.62 475.85 218.92 436.5 235.95"/>
    </g>
    <line class="uuid-6db21299-c6f5-4d16-870e-c410b9d26034" x1="108.12" y1="346.03" x2="791.88" y2="346.03"/>
    <ellipse class="uuid-5521cc9a-7aea-43ef-ae2e-cebe2be64c09" cx="628.15" cy="309.73" rx="102.38" ry="62.67"/>
    <path class="uuid-168a4b0e-8a57-4641-85e9-31609c3560ed" d="M642.19,333.56c-76.84-19.36-108.76-52.03-123.63-78.67-14.8-26.52-13.13-47.83-33.72-87.67-18.59-35.98-41.89-61.03-58.44-76.43"/>
    <circle class="uuid-c6ea0846-6353-483c-80f5-183948db1ef1" cx="643.82" cy="333.22" r="10"/>
    <circle class="uuid-5db2af8f-c3f2-4df5-bb89-e46e1aa52e4e" cx="426.04" cy="89.88" r="10"/>
    <text class="uuid-342fea4b-a403-455b-a157-8d28b93da726" transform="translate(268.45 460.22)"><tspan x="0" y="0">RN</tspan><tspan class="uuid-7e9af690-cd55-4c42-9c49-e8a01da0bad5" x="79.01" y="0">A</tspan><tspan class="uuid-4f7ba9d7-3785-41af-9140-c013780700f8" x="112.47" y="0" xml:space="preserve"> Polymerase II</tspan></text>
    <line class="uuid-1edd9a0d-db7d-4f4e-b897-8b9c63fa665e" x1="656" y1="205.72" x2="643.89" y2="333.85"/>
    <g>
      <rect class="uuid-c6ea0846-6353-483c-80f5-183948db1ef1" x="608" y="22.01" width="183.88" height="189.25"/>
      <g>
        <path d="M625.38,99.87l15.04-39.16h5.58l16.03,39.16h-5.9l-4.57-11.86h-16.37l-4.3,11.86h-5.5ZM636.68,83.79h13.28l-4.09-10.84c-1.25-3.29-2.17-6-2.78-8.12-.5,2.51-1.2,5-2.11,7.48l-4.3,11.49Z"/>
        <path d="M684.06,89.48l4.73.61c-.52,3.26-1.84,5.81-3.97,7.65-2.13,1.84-4.74,2.76-7.84,2.76-3.88,0-7-1.27-9.36-3.81s-3.54-6.17-3.54-10.91c0-3.06.51-5.74,1.52-8.04,1.01-2.3,2.56-4.02,4.63-5.17,2.07-1.15,4.33-1.72,6.77-1.72,3.08,0,5.6.78,7.56,2.34s3.21,3.77,3.77,6.64l-4.67.72c-.45-1.91-1.23-3.34-2.36-4.3-1.13-.96-2.5-1.44-4.1-1.44-2.42,0-4.39.87-5.9,2.6-1.51,1.74-2.27,4.48-2.27,8.24s.73,6.58,2.19,8.31c1.46,1.73,3.37,2.59,5.72,2.59,1.89,0,3.46-.58,4.73-1.74,1.26-1.16,2.07-2.94,2.4-5.34Z"/>
        <path d="M703.4,95.57l.69,4.25c-1.35.28-2.56.43-3.63.43-1.75,0-3.1-.28-4.06-.83-.96-.55-1.64-1.28-2.03-2.18-.39-.9-.59-2.79-.59-5.68v-16.32h-3.53v-3.74h3.53v-7.02l4.78-2.88v9.91h4.83v3.74h-4.83v16.59c0,1.37.08,2.25.25,2.64.17.39.44.7.83.94s.93.35,1.64.35c.53,0,1.24-.06,2.11-.19Z"/>
        <path d="M708.13,66.25v-5.53h4.81v5.53h-4.81ZM708.13,99.87v-28.37h4.81v28.37h-4.81Z"/>
        <path d="M728.13,99.87l-10.79-28.37h5.08l6.09,16.99c.66,1.83,1.26,3.74,1.82,5.72.43-1.5,1.02-3.29,1.79-5.4l6.3-17.31h4.94l-10.74,28.37h-4.49Z"/>
        <path d="M767.02,90.74l4.97.61c-.78,2.9-2.23,5.16-4.35,6.76s-4.83,2.4-8.12,2.4c-4.15,0-7.44-1.28-9.87-3.83-2.43-2.55-3.65-6.14-3.65-10.75s1.23-8.48,3.69-11.11c2.46-2.63,5.64-3.95,9.56-3.95s6.89,1.29,9.29,3.87c2.4,2.58,3.61,6.21,3.61,10.9,0,.29,0,.71-.03,1.28h-21.15c.18,3.12,1.06,5.5,2.64,7.16,1.58,1.66,3.56,2.48,5.93,2.48,1.76,0,3.27-.46,4.51-1.39s2.23-2.4,2.96-4.43ZM751.24,82.97h15.84c-.21-2.39-.82-4.18-1.82-5.37-1.53-1.85-3.52-2.78-5.96-2.78-2.21,0-4.06.74-5.57,2.22-1.5,1.48-2.34,3.46-2.5,5.93Z"/>
        <path d="M655.27,152.93l4.89-.43c.23,1.96.77,3.57,1.62,4.82s2.16,2.27,3.94,3.04,3.78,1.16,6.01,1.16c1.98,0,3.72-.29,5.24-.88,1.51-.59,2.64-1.39,3.38-2.42.74-1.02,1.11-2.14,1.11-3.35s-.36-2.3-1.07-3.22c-.71-.92-1.89-1.69-3.53-2.31-1.05-.41-3.38-1.05-6.97-1.91s-6.12-1.68-7.56-2.44c-1.87-.98-3.26-2.19-4.18-3.65s-1.38-3.08-1.38-4.87c0-1.98.56-3.82,1.68-5.54,1.12-1.72,2.76-3.02,4.92-3.91,2.15-.89,4.55-1.34,7.18-1.34,2.9,0,5.46.47,7.68,1.4,2.22.94,3.92,2.31,5.12,4.13,1.19,1.82,1.83,3.87,1.92,6.17l-4.97.37c-.27-2.47-1.17-4.34-2.71-5.61-1.54-1.26-3.82-1.9-6.82-1.9s-5.42.57-6.85,1.72c-1.43,1.15-2.15,2.53-2.15,4.15,0,1.41.51,2.56,1.52,3.47,1,.91,3.6,1.84,7.81,2.79,4.21.95,7.1,1.79,8.67,2.5,2.28,1.05,3.96,2.38,5.05,3.99,1.09,1.61,1.63,3.47,1.63,5.57s-.6,4.05-1.79,5.89c-1.19,1.84-2.91,3.28-5.14,4.3-2.24,1.02-4.75,1.54-7.55,1.54-3.54,0-6.51-.52-8.91-1.55-2.4-1.03-4.27-2.59-5.64-4.66-1.36-2.07-2.08-4.42-2.15-7.04Z"/>
        <path d="M692.93,131.89v-5.53h4.81v5.53h-4.81ZM692.93,165.51v-28.37h4.81v28.37h-4.81Z"/>
        <path d="M715.55,161.21l.69,4.25c-1.35.28-2.56.43-3.63.43-1.75,0-3.1-.28-4.06-.83-.96-.55-1.64-1.28-2.03-2.18-.39-.9-.59-2.79-.59-5.68v-16.32h-3.53v-3.74h3.53v-7.02l4.78-2.88v9.91h4.83v3.74h-4.83v16.59c0,1.37.08,2.25.25,2.64.17.39.44.7.83.94s.93.35,1.64.35c.53,0,1.24-.06,2.11-.19Z"/>
        <path d="M739.67,156.38l4.97.61c-.78,2.9-2.23,5.16-4.35,6.76s-4.83,2.4-8.12,2.4c-4.15,0-7.44-1.28-9.87-3.83-2.43-2.55-3.65-6.14-3.65-10.75s1.23-8.48,3.69-11.11c2.46-2.63,5.64-3.95,9.56-3.95s6.89,1.29,9.29,3.87c2.4,2.58,3.61,6.21,3.61,10.9,0,.29,0,.71-.03,1.28h-21.15c.18,3.12,1.06,5.5,2.64,7.16,1.58,1.66,3.56,2.48,5.93,2.48,1.76,0,3.27-.46,4.51-1.39s2.23-2.4,2.96-4.43ZM723.89,148.61h15.84c-.21-2.39-.82-4.18-1.82-5.37-1.53-1.85-3.52-2.78-5.96-2.78-2.21,0-4.06.74-5.57,2.22-1.5,1.48-2.34,3.46-2.5,5.93Z"/>
      </g>
    </g>
    <g>
      <rect class="uuid-5db2af8f-c3f2-4df5-bb89-e46e1aa52e4e" x="108.12" y="90.25" width="183.88" height="113.85"/>
      <text class="uuid-6308a2cf-17d8-40f8-99c5-86e80b203aca" transform="translate(146.89 163.23)"><tspan x="0" y="0">TSS</tspan></text>
    </g>
    <line class="uuid-c2fb2f22-982e-478d-bf4c-5da2dba139d2" x1="425.93" y1="90.04" x2="282.07" y2="122.95"/>
  </g>
</svg>