<?xml version="1.0" encoding="UTF-8"?>
<svg xmlns="http://www.w3.org/2000/svg" viewBox="0 0 900 500">
  <defs>
    <style>
      .uuid-b53a5fe4-3061-439c-b431-595a5f987d4e {
        fill: #f1a83b;
      }

      .uuid-8dfdd8c9-110b-42f2-a95d-c2fac3421dc4 {
        fill: #e93323;
      }

      .uuid-7b0b3c21-aa46-4734-a154-dece529b1d9e {
        fill: #458833;
      }

      .uuid-ac5b1f33-d1f2-45ca-9101-b63ab3bc9d81, .uuid-65bd8d3c-60f9-4e1f-b1ef-bc9018e127df {
        fill: #00d40b;
      }

      .uuid-ac5b1f33-d1f2-45ca-9101-b63ab3bc9d81, .uuid-5dd27ebc-08dd-4862-b062-e7932e764700 {
        opacity: .2;
      }

      .uuid-9c2cd0e5-8054-4c82-95bc-784c8e7ddf32 {
        fill: #0000f4;
      }

      .uuid-ef7769d5-8338-4284-8d67-797663bc604b {
        fill: #f80;
      }

      .uuid-2dcf4284-925b-47e7-b7d3-17a950efd347 {
        fill: #4787bf;
      }

      .uuid-bd1ee997-d4e5-4c89-92f1-85e6bb611964 {
        fill: #1b1b1d;
      }

      .uuid-5e2f0a89-fb38-4cf9-86bc-638a2f43b2e6 {
        stroke: #fff;
        stroke-linecap: round;
        stroke-width: 14px;
      }

      .uuid-5e2f0a89-fb38-4cf9-86bc-638a2f43b2e6, .uuid-f480b64e-104a-455d-98f9-a7f89f6b9788 {
        fill: none;
        stroke-miterlimit: 10;
      }

      .uuid-25a09504-8ec0-42d2-8fce-9c1424318a26 {
        fill: aqua;
      }

      .uuid-f480b64e-104a-455d-98f9-a7f89f6b9788 {
        stroke: aqua;
        stroke-width: 9px;
      }

      .uuid-b58bd485-254a-42d9-8411-9ef69342baba, .uuid-5dd27ebc-08dd-4862-b062-e7932e764700 {
        fill: #ffe42a;
      }
    </style>
  </defs>
  <g id="uuid-2f2ac554-1cc2-4a11-b1e2-395abe00c0cb" data-name="Layer 2">
    <rect class="uuid-bd1ee997-d4e5-4c89-92f1-85e6bb611964" width="900" height="500"/>
  </g>
  <g id="uuid-a40c33d9-77cf-4f6e-adf1-c78e2eb0b1b4" data-name="Layer 1">
    <g>
      <path class="uuid-ac5b1f33-d1f2-45ca-9101-b63ab3bc9d81" d="M746.88,367h-369v-81l-62.88-45h26.88l405,45v81Z"/>
      <g>
        <g>
          <path class="uuid-f480b64e-104a-455d-98f9-a7f89f6b9788" d="M427.5,214v-81h72.14"/>
          <polygon class="uuid-25a09504-8ec0-42d2-8fce-9c1424318a26" points="487 149.66 494.08 133 487 116.34 526.5 133 487 149.66"/>
        </g>
        <line class="uuid-5e2f0a89-fb38-4cf9-86bc-638a2f43b2e6" x1="108.12" y1="213.08" x2="791.88" y2="214.92"/>
        <polygon class="uuid-2dcf4284-925b-47e7-b7d3-17a950efd347" points="742.5 241 540 241 540 187 742.5 187 778.5 214 742.5 241"/>
        <rect class="uuid-2dcf4284-925b-47e7-b7d3-17a950efd347" x="477" y="187" width="27" height="54"/>
        <rect class="uuid-b58bd485-254a-42d9-8411-9ef69342baba" x="270" y="187" width="18" height="54"/>
        <rect class="uuid-65bd8d3c-60f9-4e1f-b1ef-bc9018e127df" x="315" y="187" width="27" height="54"/>
        <rect class="uuid-ef7769d5-8338-4284-8d67-797663bc604b" x="229.5" y="187" width="4.5" height="54"/>
        <rect class="uuid-ef7769d5-8338-4284-8d67-797663bc604b" x="220.5" y="187" width="4.5" height="54"/>
        <rect class="uuid-ef7769d5-8338-4284-8d67-797663bc604b" x="211.5" y="187" width="4.5" height="54"/>
      </g>
      <path class="uuid-5dd27ebc-08dd-4862-b062-e7932e764700" d="M359.88,367H116.88v-81l153.12-45h17.77l72.12,45v81Z"/>
      <g>
        <g>
          <path class="uuid-8dfdd8c9-110b-42f2-a95d-c2fac3421dc4" d="M127.84,357.8l7.36-.62h7.36l7.58.62h-5.58l-2.01-.15h-7.36l-1.78.15h-5.58M136.99,357.53h3.79l-1.78-.19-2.01.19"/>
          <path class="uuid-9c2cd0e5-8054-4c82-95bc-784c8e7ddf32" d="M150.15,356.69c0-.28-22.3-.28-22.3.15s22.3.43,22.3.15h-5.58c0,.12-10.04.12-10.04-.15s10.04-.27,10.04-.15h5.58Z"/>
          <path class="uuid-7b0b3c21-aa46-4734-a154-dece529b1d9e" d="M127.84,352.66v.77h7.81v3.07h6.69v-3.07h7.81v-.77h-22.3Z"/>
          <path class="uuid-b53a5fe4-3061-439c-b431-595a5f987d4e" d="M150.15,349.65c0-1.71-22.3-1.71-22.3.92s22.3,2.63,22.3.92v-1h-10.04v1h4.46c0,.75-10.04.75-10.04-.92s10.04-1.88,10.04-.92h5.58Z"/>
        </g>
        <path class="uuid-9c2cd0e5-8054-4c82-95bc-784c8e7ddf32" d="M172.45,325.69c0-18.29-22.3-18.29-22.3,9.81s22.3,28.1,22.3,9.81h-5.58c0,8.03-10.04,8.03-10.04-9.81s10.04-17.84,10.04-9.81h5.58Z"/>
        <path class="uuid-8dfdd8c9-110b-42f2-a95d-c2fac3421dc4" d="M172.45,357.8l7.36-44.61h7.36l7.58,44.61h-5.58l-2.01-11.15h-7.36l-1.78,11.15h-5.58M181.6,337.73h3.79l-1.78-13.38-2.01,13.38"/>
        <g>
          <path class="uuid-7b0b3c21-aa46-4734-a154-dece529b1d9e" d="M194.76,356.09v.34h7.81v1.37h6.69v-1.37h7.81v-.34h-22.3Z"/>
          <path class="uuid-9c2cd0e5-8054-4c82-95bc-784c8e7ddf32" d="M217.06,329.4c0-15.2-22.3-15.2-22.3,8.16s22.3,23.36,22.3,8.16h-5.58c0,6.67-10.04,6.67-10.04-8.16s10.04-14.83,10.04-8.16h5.58Z"/>
        </g>
        <g>
          <path class="uuid-8dfdd8c9-110b-42f2-a95d-c2fac3421dc4" d="M217.06,357.8l7.36-1.19h7.36l7.58,1.19h-5.58l-2.01-.3h-7.36l-1.78.3h-5.58M226.2,357.27h3.79l-1.78-.36-2.01.36"/>
          <path class="uuid-b53a5fe4-3061-439c-b431-595a5f987d4e" d="M239.36,328.43c0-16.05-22.3-16.05-22.3,8.61s22.3,24.67,22.3,8.61v-9.4h-10.04v9.4h4.46c0,7.05-10.04,7.05-10.04-8.61s10.04-17.62,10.04-8.61h5.58Z"/>
        </g>
        <path class="uuid-7b0b3c21-aa46-4734-a154-dece529b1d9e" d="M239.36,313.2v8.92h7.81v35.69h6.69v-35.69h7.81v-8.92h-22.3Z"/>
        <path class="uuid-b53a5fe4-3061-439c-b431-595a5f987d4e" d="M283.97,325.69c0-18.29-22.3-18.29-22.3,9.81s22.3,28.1,22.3,9.81v-10.71h-10.04v10.71h4.46c0,8.03-10.04,8.03-10.04-9.81s10.04-20.07,10.04-9.81h5.58Z"/>
        <g>
          <path class="uuid-9c2cd0e5-8054-4c82-95bc-784c8e7ddf32" d="M306.28,357.59c0-.12-22.3-.12-22.3.07s22.3.19,22.3.07h-5.58c0,.05-10.04.05-10.04-.07s10.04-.12,10.04-.07h5.58Z"/>
          <path class="uuid-b53a5fe4-3061-439c-b431-595a5f987d4e" d="M306.28,357.07c0-.25-22.3-.25-22.3.13s22.3.38,22.3.13v-.14h-10.04v.14h4.46c0,.11-10.04.11-10.04-.13s10.04-.27,10.04-.13h5.58Z"/>
          <path class="uuid-8dfdd8c9-110b-42f2-a95d-c2fac3421dc4" d="M283.97,356.91l7.36-39.85h7.36l7.58,39.85h-5.58l-2.01-9.96h-7.36l-1.78,9.96h-5.58M293.12,338.97h3.79l-1.78-11.95-2.01,11.95"/>
        </g>
        <g>
          <path class="uuid-b53a5fe4-3061-439c-b431-595a5f987d4e" d="M328.58,357.58c0-.13-22.3-.13-22.3.07s22.3.2,22.3.07v-.08h-10.04v.08h4.46c0,.06-10.04.06-10.04-.07s10.04-.14,10.04-.07h5.58Z"/>
          <path class="uuid-7b0b3c21-aa46-4734-a154-dece529b1d9e" d="M306.28,350.02v1.49h7.81v5.97h6.69v-5.97h7.81v-1.49h-22.3Z"/>
          <path class="uuid-9c2cd0e5-8054-4c82-95bc-784c8e7ddf32" d="M328.58,340.07c0-5.67-22.3-5.67-22.3,3.04s22.3,8.71,22.3,3.04h-5.58c0,2.49-10.04,2.49-10.04-3.04s10.04-5.53,10.04-3.04h5.58Z"/>
        </g>
        <g>
          <path class="uuid-b53a5fe4-3061-439c-b431-595a5f987d4e" d="M350.88,357.54c0-.15-22.3-.15-22.3.08s22.3.23,22.3.08v-.09h-10.04v.09h4.46c0,.07-10.04.07-10.04-.08s10.04-.16,10.04-.08h5.58Z"/>
          <path class="uuid-8dfdd8c9-110b-42f2-a95d-c2fac3421dc4" d="M328.58,357.44l7.36-.88h7.36l7.58.88h-5.58l-2.01-.22h-7.36l-1.78.22h-5.58M337.72,357.04h3.79l-1.78-.26-2.01.26"/>
          <path class="uuid-7b0b3c21-aa46-4734-a154-dece529b1d9e" d="M328.58,355.46v.22h7.81v.88h6.69v-.88h7.81v-.22h-22.3Z"/>
          <path class="uuid-9c2cd0e5-8054-4c82-95bc-784c8e7ddf32" d="M350.88,354.17c0-.74-22.3-.74-22.3.39s22.3,1.13,22.3.39h-5.58c0,.32-10.04.32-10.04-.39s10.04-.72,10.04-.39h5.58Z"/>
        </g>
      </g>
      <g>
        <g>
          <path class="uuid-8dfdd8c9-110b-42f2-a95d-c2fac3421dc4" d="M395.88,356.72l10.26-3.33h10.26l10.57,3.33h-7.77l-2.8-.83h-10.26l-2.49.83h-7.77M408.63,355.22h5.29l-2.49-1-2.8,1"/>
          <path class="uuid-7b0b3c21-aa46-4734-a154-dece529b1d9e" d="M395.88,323.4v6h10.88v23.99h9.33v-23.99h10.88v-6h-31.09Z"/>
        </g>
        <g>
          <path class="uuid-8dfdd8c9-110b-42f2-a95d-c2fac3421dc4" d="M426.97,356.72l10.26-1.39h10.26l10.57,1.39h-7.77l-2.8-.35h-10.26l-2.49.35h-7.77M439.72,356.09h5.29l-2.49-.42-2.8.42"/>
          <path class="uuid-7b0b3c21-aa46-4734-a154-dece529b1d9e" d="M426.97,349.76v1.11h10.88v4.45h9.33v-4.45h10.88v-1.11h-31.09Z"/>
          <path class="uuid-9c2cd0e5-8054-4c82-95bc-784c8e7ddf32" d="M458.06,344.76c0-2.85-31.09-2.85-31.09,1.53s31.09,4.38,31.09,1.53h-7.77c0,1.25-13.99,1.25-13.99-1.53s13.99-2.78,13.99-1.53h7.77Z"/>
        </g>
        <g>
          <path class="uuid-8dfdd8c9-110b-42f2-a95d-c2fac3421dc4" d="M458.06,356.72l10.26-3.33h10.26l10.57,3.33h-7.77l-2.8-.83h-10.26l-2.49.83h-7.77M470.81,355.22h5.29l-2.49-1-2.8,1"/>
          <path class="uuid-7b0b3c21-aa46-4734-a154-dece529b1d9e" d="M458.06,323.4v6h10.88v23.99h9.33v-23.99h10.88v-6h-31.09Z"/>
        </g>
        <path class="uuid-9c2cd0e5-8054-4c82-95bc-784c8e7ddf32" d="M520.25,325.38c0-17.85-31.09-17.85-31.09,9.58s31.09,27.42,31.09,9.58h-7.77c0,7.83-13.99,7.83-13.99-9.58s13.99-17.41,13.99-9.58h7.77Z"/>
        <path class="uuid-9c2cd0e5-8054-4c82-95bc-784c8e7ddf32" d="M551.34,325.38c0-17.85-31.09-17.85-31.09,9.58s31.09,27.42,31.09,9.58h-7.77c0,7.83-13.99,7.83-13.99-9.58s13.99-17.41,13.99-9.58h7.77Z"/>
        <g>
          <path class="uuid-8dfdd8c9-110b-42f2-a95d-c2fac3421dc4" d="M551.34,356.72l10.26-5.56h10.26l10.57,5.56h-7.77l-2.8-1.39h-10.26l-2.49,1.39h-7.77M564.08,354.22h5.29l-2.49-1.67-2.8,1.67"/>
          <path class="uuid-b53a5fe4-3061-439c-b431-595a5f987d4e" d="M582.43,335.13c0-9.12-31.09-9.12-31.09,4.9s31.09,14.02,31.09,4.9v-5.34h-13.99v5.34h6.22c0,4.01-13.99,4.01-13.99-4.9s13.99-10.01,13.99-4.9h7.77Z"/>
        </g>
        <g>
          <path class="uuid-b53a5fe4-3061-439c-b431-595a5f987d4e" d="M613.52,354.32c0-1.37-31.09-1.37-31.09.73s31.09,2.1,31.09.73v-.8h-13.99v.8h6.22c0,.6-13.99.6-13.99-.73s13.99-1.5,13.99-.73h7.77Z"/>
          <path class="uuid-9c2cd0e5-8054-4c82-95bc-784c8e7ddf32" d="M613.52,331.8c0-12.3-31.09-12.3-31.09,6.6s31.09,18.89,31.09,6.6h-7.77c0,5.4-13.99,5.4-13.99-6.6s13.99-12,13.99-6.6h7.77Z"/>
        </g>
        <g>
          <path class="uuid-8dfdd8c9-110b-42f2-a95d-c2fac3421dc4" d="M613.52,356.72l10.26-7.3h10.26l10.57,7.3h-7.77l-2.8-1.83h-10.26l-2.49,1.83h-7.77M626.27,353.43h5.29l-2.49-2.19-2.8,2.19"/>
          <path class="uuid-b53a5fe4-3061-439c-b431-595a5f987d4e" d="M644.61,337.14c0-6.99-31.09-6.99-31.09,3.75s31.09,10.74,31.09,3.75v-4.09h-13.99v4.09h6.22c0,3.07-13.99,3.07-13.99-3.75s13.99-7.67,13.99-3.75h7.77Z"/>
        </g>
        <path class="uuid-b53a5fe4-3061-439c-b431-595a5f987d4e" d="M675.7,325.38c0-17.85-31.09-17.85-31.09,9.58s31.09,27.42,31.09,9.58v-10.45h-13.99v10.45h6.22c0,7.83-13.99,7.83-13.99-9.58s13.99-19.59,13.99-9.58h7.77Z"/>
        <path class="uuid-8dfdd8c9-110b-42f2-a95d-c2fac3421dc4" d="M675.7,356.72l10.26-43.53h10.26l10.57,43.53h-7.77l-2.8-10.88h-10.26l-2.49,10.88h-7.77M688.45,337.13h5.29l-2.49-13.06-2.8,13.06"/>
        <g>
          <path class="uuid-b53a5fe4-3061-439c-b431-595a5f987d4e" d="M737.88,355.6c0-.64-31.09-.64-31.09.34s31.09.98,31.09.34v-.37h-13.99v.37h6.22c0,.28-13.99.28-13.99-.34s13.99-.7,13.99-.34h7.77Z"/>
          <path class="uuid-7b0b3c21-aa46-4734-a154-dece529b1d9e" d="M706.79,353.6v.31h10.88v1.25h9.33v-1.25h10.88v-.31h-31.09Z"/>
          <path class="uuid-8dfdd8c9-110b-42f2-a95d-c2fac3421dc4" d="M706.79,353.6l10.26-28.03h10.26l10.57,28.03h-7.77l-2.8-7.01h-10.26l-2.49,7.01h-7.77M719.54,340.99h5.29l-2.49-8.41-2.8,8.41"/>
        </g>
      </g>
    </g>
  </g>
</svg>