<?xml version="1.0" encoding="UTF-8"?>
<svg id="uuid-02598578-becf-4c27-96b8-67d8f037611c" data-name="Layer 1" xmlns="http://www.w3.org/2000/svg" viewBox="0 0 900 500">
  <defs>
    <style>
      .uuid-ba26824f-52c8-4008-9e84-704d4afe2c3e {
        stroke: #ffc800;
      }

      .uuid-ba26824f-52c8-4008-9e84-704d4afe2c3e, .uuid-20592726-a81d-4006-b127-96cbd50a2158, .uuid-d640b3f9-12b4-4901-9e15-7fb7f0f5e181, .uuid-19dcf12d-72d2-401f-afaa-fb1ef36b4e35, .uuid-12784b60-6bcc-4ec0-9f06-312dedd0337c, .uuid-e193d66a-60bf-4e00-8697-fec4a8de9ca1 {
        stroke-miterlimit: 10;
      }

      .uuid-ba26824f-52c8-4008-9e84-704d4afe2c3e, .uuid-20592726-a81d-4006-b127-96cbd50a2158, .uuid-d640b3f9-12b4-4901-9e15-7fb7f0f5e181, .uuid-e193d66a-60bf-4e00-8697-fec4a8de9ca1 {
        fill: none;
        stroke-linecap: round;
        stroke-width: 5px;
      }

      .uuid-20592726-a81d-4006-b127-96cbd50a2158, .uuid-19dcf12d-72d2-401f-afaa-fb1ef36b4e35 {
        stroke: #231f20;
      }

      .uuid-d640b3f9-12b4-4901-9e15-7fb7f0f5e181 {
        stroke: aqua;
      }

      .uuid-19dcf12d-72d2-401f-afaa-fb1ef36b4e35 {
        fill: #bbbdbf;
        stroke-width: .5px;
      }

      .uuid-12784b60-6bcc-4ec0-9f06-312dedd0337c {
        fill: #747475;
      }

      .uuid-12784b60-6bcc-4ec0-9f06-312dedd0337c, .uuid-e193d66a-60bf-4e00-8697-fec4a8de9ca1 {
        stroke: #000;
      }
    </style>
  </defs>
  <path class="uuid-20592726-a81d-4006-b127-96cbd50a2158" d="M655.1,289.02c-7.99-5.02-2.93-18.47,9.2-18.47h127.58"/>
  <path class="uuid-e193d66a-60bf-4e00-8697-fec4a8de9ca1" d="M108.12,270.55h280.68c9.63,0,21.96,9.56,27.04,19.63"/>
  <g>
    <circle class="uuid-19dcf12d-72d2-401f-afaa-fb1ef36b4e35" cx="724.83" cy="269.93" r="49.5"/>
    <line class="uuid-20592726-a81d-4006-b127-96cbd50a2158" x1="676.68" y1="269.58" x2="760.71" y2="237.32"/>
    <line class="uuid-20592726-a81d-4006-b127-96cbd50a2158" x1="689" y1="302.16" x2="773.03" y2="269.9"/>
  </g>
  <g>
    <circle class="uuid-19dcf12d-72d2-401f-afaa-fb1ef36b4e35" cx="327.72" cy="269.93" r="49.5"/>
    <line class="uuid-20592726-a81d-4006-b127-96cbd50a2158" x1="279.57" y1="269.58" x2="363.61" y2="237.32"/>
    <line class="uuid-20592726-a81d-4006-b127-96cbd50a2158" x1="291.9" y1="302.16" x2="375.93" y2="269.9"/>
  </g>
  <g>
    <circle class="uuid-19dcf12d-72d2-401f-afaa-fb1ef36b4e35" cx="182.85" cy="269.93" r="49.5"/>
    <line class="uuid-e193d66a-60bf-4e00-8697-fec4a8de9ca1" x1="134.7" y1="269.58" x2="218.73" y2="237.32"/>
    <line class="uuid-e193d66a-60bf-4e00-8697-fec4a8de9ca1" x1="147.02" y1="302.16" x2="231.05" y2="269.9"/>
  </g>
  <path class="uuid-ba26824f-52c8-4008-9e84-704d4afe2c3e" d="M415.84,316.85c8.44-10.84,7.95-14.69,0-26.67"/>
  <path class="uuid-d640b3f9-12b4-4901-9e15-7fb7f0f5e181" d="M665.45,317.32c6.84-5.35.06-24.93-10.34-28.3"/>
  <g>
    <path class="uuid-12784b60-6bcc-4ec0-9f06-312dedd0337c" d="M608.76,108.53c6.28,0,11.84,4.05,15.28,10.28,3.12-3,6.95-4.76,11.1-4.76,10.44,0,18.91,11.21,18.91,25.03s-8.47,25.03-18.91,25.03c-6.28,0-11.84-4.05-15.28-10.28-3.12,3-6.95,4.76-11.1,4.76-10.44,0-18.91-11.21-18.91-25.03s8.47-25.03,18.91-25.03Z"/>
    <path class="uuid-ba26824f-52c8-4008-9e84-704d4afe2c3e" d="M600.59,122.3c-10.68-20.66-15.66-20.65-16.11-21.07"/>
    <path class="uuid-d640b3f9-12b4-4901-9e15-7fb7f0f5e181" d="M670.19,166.72c-21.18-5.34-29.98-14.34-34.08-21.69"/>
  </g>
  <g>
    <path class="uuid-20592726-a81d-4006-b127-96cbd50a2158" d="M570.62,324.69c14.92-3.18,29.79.26,29.85,24.05"/>
    <path class="uuid-20592726-a81d-4006-b127-96cbd50a2158" d="M475.61,323.25c-26.57,14.53-15.68,44.3-8.65,50.96"/>
    <g>
      <circle class="uuid-19dcf12d-72d2-401f-afaa-fb1ef36b4e35" cx="522.41" cy="324.71" r="49.5"/>
      <line class="uuid-20592726-a81d-4006-b127-96cbd50a2158" x1="474.26" y1="324.37" x2="558.29" y2="292.11"/>
      <line class="uuid-20592726-a81d-4006-b127-96cbd50a2158" x1="486.58" y1="356.95" x2="570.62" y2="324.69"/>
    </g>
    <path class="uuid-d640b3f9-12b4-4901-9e15-7fb7f0f5e181" d="M634.54,364.19c-17.16,10.02-36.43,1.81-34.08-14.69"/>
    <path class="uuid-ba26824f-52c8-4008-9e84-704d4afe2c3e" d="M475.61,398.77c0-10.53,0-16.31-8.06-23.55"/>
  </g>
  <g>
    <path class="uuid-12784b60-6bcc-4ec0-9f06-312dedd0337c" d="M573.24,180.24c6.28,0,11.84,4.05,15.28,10.28,3.12-3,6.95-4.76,11.1-4.76,10.44,0,18.91,11.21,18.91,25.03s-8.47,25.03-18.91,25.03c-6.28,0-11.84-4.05-15.28-10.28-3.12,3-6.95,4.76-11.1,4.76-10.44,0-18.91-11.21-18.91-25.03s8.47-25.03,18.91-25.03Z"/>
    <path class="uuid-ba26824f-52c8-4008-9e84-704d4afe2c3e" d="M565.07,194.01c-10.68-20.66-15.66-20.65-16.11-21.07"/>
    <path class="uuid-d640b3f9-12b4-4901-9e15-7fb7f0f5e181" d="M634.67,238.43c-21.18-5.34-29.98-14.34-34.08-21.69"/>
  </g>
  <g>
    <path class="uuid-12784b60-6bcc-4ec0-9f06-312dedd0337c" d="M424.39,136.13c6.28,0,11.84,4.05,15.28,10.28,3.12-3,6.95-4.76,11.1-4.76,10.44,0,18.91,11.21,18.91,25.03s-8.47,25.03-18.91,25.03c-6.28,0-11.84-4.05-15.28-10.28-3.12,3-6.95,4.76-11.1,4.76-10.44,0-18.91-11.21-18.91-25.03s8.47-25.03,18.91-25.03Z"/>
    <path class="uuid-ba26824f-52c8-4008-9e84-704d4afe2c3e" d="M416.21,149.9c-10.68-20.66-15.66-20.65-16.11-21.07"/>
    <path class="uuid-d640b3f9-12b4-4901-9e15-7fb7f0f5e181" d="M485.81,194.32c-21.18-5.34-29.98-14.34-34.08-21.69"/>
  </g>
</svg>